<svg width="20" height="20" viewBox="0 0 20 20" fill="none" xmlns="http://www.w3.org/2000/svg">
<path fill-rule="evenodd" clip-rule="evenodd" d="M7.5 10H12.5C13.8807 10 15 11.1193 15 12.5V14.5C15 15.8807 13.8807 17 12.5 17H7.5C6.11929 17 5 15.8807 5 14.5V12.5C5 11.1193 6.11929 10 7.5 10ZM7.5 12C7.22386 12 7 12.2239 7 12.5V14.5C7 14.7761 7.22386 15 7.5 15H12.5C12.7761 15 13 14.7761 13 14.5V12.5C13 12.2239 12.7761 12 12.5 12H7.5Z" fill="#BBDD00"/>
<path fill-rule="evenodd" clip-rule="evenodd" d="M10.6 0H9.4C7.1812 0 5.34598 1.64233 5.04367 3.77768C3.22621 4.80875 2 6.76117 2 9V17C2 18.6569 3.34314 20 5 20H15C16.6569 20 18 18.6569 18 17V9C18 6.76117 16.7738 4.80875 14.9563 3.77768C14.654 1.64233 12.8188 0 10.6 0ZM7.43157 3.02657C7.86542 2.40593 8.5853 2 9.4 2H10.6C11.4147 2 12.1346 2.40594 12.5684 3.02658C12.3813 3.00899 12.1917 3 12 3H8C7.80829 3 7.61868 3.00899 7.43157 3.02657ZM8 5C5.79086 5 4 6.79086 4 9V17C4 17.5523 4.44772 18 5 18H15C15.5523 18 16 17.5523 16 17V9C16 6.79086 14.2091 5 12 5H8Z" fill="#BBDD00"/>
</svg>
