<svg width="210" height="36" viewBox="0 0 210 36" fill="none" xmlns="http://www.w3.org/2000/svg">
<g clip-path="url(#clip0_99_1589)">
<path d="M0 8.38984V16.9362L0.510369 18L1.02074 19.0639V22.0072V24.9506L0.510369 26.0144L0 27.0783V31.6174V36.1566H8.71031H17.4206L18.3257 35.6885L19.2239 35.2204L20.129 35.6885L21.0272 36.1566H27.9342H34.8412V28.9578V21.759L34.3921 20.8157L33.943 19.8795L34.3921 18.9362L34.8412 18V8.92177V-0.156487H32.6636H30.4861L29.6014 0.304519L28.7168 0.765524L27.8321 0.304519L26.9475 -0.156487H22.6944H18.4414L17.4206 0.375443L16.3999 0.907372H13.5758H10.7518L9.73104 0.375443L8.71031 -0.156487H4.35515H0V8.38984ZM18.3257 14.1772C23.9125 18.5532 28.5331 22.1845 28.5943 22.2484C28.7032 22.3548 28.676 22.5888 28.1996 26.0499C27.9274 28.0712 27.6961 29.7379 27.6961 29.7521C27.6961 29.7663 26.7706 29.7663 25.641 29.7592L23.5859 29.7379L22.2793 28.1422L20.966 26.5464L20.7006 25.3903C20.5509 24.752 20.4216 24.2272 20.408 24.213C20.3944 24.1988 19.918 23.986 19.3464 23.7378L18.3121 23.2839L12.208 15.8085L6.11082 8.33311L7.11795 7.28343C7.67596 6.70186 8.13869 6.22667 8.1523 6.22667C8.15911 6.22667 12.7388 9.80832 18.3257 14.1772ZM27.2061 7.80827L28.7168 9.38278L28.7032 12.5602L28.6828 15.7305L24.1235 10.9786L19.5642 6.22667H22.6264H25.6886L27.2061 7.80827ZM12.2693 29.7592L9.22068 29.7734L7.67596 28.1634L6.12443 26.5464V23.3548V20.1703L10.7178 24.9506L15.3111 29.7379L12.2693 29.7592Z" fill="#BBDD00"/>
<path d="M54.3174 31.9079C52.4824 31.9079 50.8566 31.5085 49.4397 30.7096C48.046 29.8864 46.9544 28.7487 46.1646 27.2962C45.3981 25.8194 45.0148 24.1127 45.0148 22.176V15.6397C45.0148 13.703 45.3981 12.0084 46.1646 10.5558C46.9544 9.07911 48.046 7.94131 49.4397 7.14242C50.8566 6.31932 52.4824 5.90778 54.3174 5.90778H58.0106C59.8456 5.90778 61.4599 6.31932 62.8535 7.14242C64.2705 7.94131 65.3621 9.07911 66.1286 10.5558C66.9184 12.0084 67.3132 13.703 67.3132 15.6397V22.176C67.3132 24.1127 66.9184 25.8194 66.1286 27.2962C65.3621 28.7487 64.2705 29.8864 62.8535 30.7096C61.4599 31.5085 59.8456 31.9079 58.0106 31.9079H54.3174ZM58.0106 27.4777C59.3578 27.4777 60.4379 26.9693 61.2508 25.9526C62.087 24.9358 62.5051 23.6043 62.5051 21.9581V15.8575C62.5051 14.2114 62.087 12.8799 61.2508 11.8631C60.4379 10.8464 59.3578 10.338 58.0106 10.338H54.3174C52.9702 10.338 51.8786 10.8464 51.0424 11.8631C50.2295 12.8799 49.8229 14.2114 49.8229 15.8575V21.9581C49.8229 23.6043 50.2295 24.9358 51.0424 25.9526C51.8786 26.9693 52.9702 27.4777 54.3174 27.4777H58.0106ZM70.7845 13.4972H75.1745V15.4581C75.6623 14.7802 76.2779 14.2355 77.0211 13.824C77.7876 13.4125 78.5309 13.2067 79.251 13.2067H81.446C82.8396 13.2067 84.0706 13.5093 85.1391 14.1145C86.2076 14.6955 87.0321 15.5187 87.6128 16.5838C88.1936 17.6489 88.4839 18.8715 88.4839 20.2514V24.3185C88.4839 25.8194 88.1936 27.1509 87.6128 28.3129C87.0321 29.4507 86.2192 30.3344 85.174 30.9638C84.1287 31.5932 82.9209 31.9079 81.5505 31.9079H79.2858C78.6354 31.9079 77.9618 31.7506 77.265 31.4358C76.5915 31.1211 76.0107 30.6975 75.5229 30.1649V38.88H70.7845V13.4972ZM80.9233 27.6593C81.7828 27.6593 82.4679 27.3204 82.979 26.6425C83.49 25.9646 83.7455 25.069 83.7455 23.9554V20.6146C83.7455 19.6704 83.4783 18.9078 82.9441 18.3268C82.4331 17.7458 81.748 17.4553 80.8885 17.4553H78.7632C78.0896 17.4553 77.4508 17.7458 76.8469 18.3268C76.243 18.8836 75.8017 19.6099 75.5229 20.5056V24.1006C75.639 25.1657 75.9874 26.0252 76.5682 26.6788C77.1721 27.3325 77.9037 27.6593 78.7632 27.6593H80.9233ZM98.571 31.9079C97.1076 31.9079 95.8069 31.6295 94.6687 31.0727C93.5538 30.4917 92.6828 29.6928 92.0556 28.6761C91.4285 27.635 91.1149 26.4489 91.1149 25.1174V20.433C91.1149 19.0047 91.4285 17.7458 92.0556 16.6564C92.6828 15.567 93.5538 14.7198 94.6687 14.1145C95.8069 13.5093 97.1076 13.2067 98.571 13.2067H101.358C103.588 13.2067 105.377 13.8603 106.724 15.1676C108.071 16.4749 108.745 18.2179 108.745 20.3967V24.2459H95.8533V25.1174C95.8533 25.9163 96.0972 26.5578 96.585 27.042C97.0728 27.5261 97.7348 27.7682 98.571 27.7682H101.289C102.101 27.7682 102.752 27.5867 103.24 27.2235C103.751 26.8361 104.006 26.34 104.006 25.7347H108.675C108.675 26.9451 108.361 28.0224 107.734 28.9666C107.107 29.9107 106.224 30.637 105.086 31.1453C103.971 31.6537 102.682 31.9079 101.219 31.9079H98.571ZM104.076 20.6872V20.3967C104.076 19.4525 103.832 18.702 103.344 18.1453C102.856 17.5643 102.206 17.2738 101.393 17.2738H98.571C97.7348 17.2738 97.0612 17.5763 96.5502 18.1816C96.0391 18.7868 95.7837 19.5857 95.7837 20.5782V20.6872H104.076ZM111.954 13.4972H116.344V15.676C116.855 14.9255 117.517 14.3324 118.33 13.8966C119.143 13.4366 119.956 13.2067 120.769 13.2067H122.86C124.718 13.2067 126.204 13.812 127.319 15.0223C128.458 16.2327 129.027 17.8305 129.027 19.8157V31.6174H124.288V19.9972C124.288 19.2467 124.091 18.6416 123.696 18.1816C123.324 17.7216 122.836 17.4916 122.232 17.4916H120.142C119.329 17.4916 118.597 17.8064 117.947 18.4358C117.32 19.041 116.902 19.8399 116.693 20.8324V31.6174H111.954V13.4972ZM136.364 31.6174C135.366 31.6174 134.553 31.3027 133.926 30.6733C133.298 30.0439 132.985 29.2208 132.985 28.204V6.19828H144.622C146.48 6.19828 148.106 6.56141 149.5 7.28767C150.917 8.01393 152.008 9.0428 152.775 10.3743C153.564 11.7058 153.959 13.243 153.959 14.986V22.1034C153.959 25.2263 153.182 27.5987 151.625 29.2208C150.069 30.8185 147.781 31.6174 144.761 31.6174H136.364ZM144.622 27.1872C146.109 27.1872 147.235 26.7394 148.002 25.8436C148.768 24.9479 149.152 23.6285 149.152 21.8855V15.2039C149.152 13.824 148.722 12.7226 147.861 11.8994C147.003 11.0522 145.876 10.6285 144.482 10.6285H137.793V27.1872H144.622ZM164.034 31.9079C162.57 31.9079 161.27 31.6174 160.131 31.0364C159.016 30.4311 158.145 29.5839 157.518 28.4945C156.915 27.4051 156.613 26.1462 156.613 24.7179V20.4693C156.613 19.041 156.926 17.7821 157.553 16.6927C158.18 15.5791 159.051 14.7198 160.166 14.1145C161.304 13.5093 162.605 13.2067 164.068 13.2067H167.204C168.667 13.2067 169.957 13.5093 171.072 14.1145C172.209 14.7198 173.093 15.5791 173.719 16.6927C174.346 17.7821 174.661 19.041 174.661 20.4693V24.7179C174.661 26.1462 174.346 27.4051 173.719 28.4945C173.093 29.5839 172.209 30.4311 171.072 31.0364C169.957 31.6174 168.656 31.9079 167.17 31.9079H164.034ZM167.099 27.6593C167.959 27.6593 168.644 27.3567 169.155 26.7515C169.666 26.1221 169.922 25.311 169.922 24.3185V20.7961C169.922 19.8036 169.666 19.0047 169.155 18.3995C168.644 17.7701 167.97 17.4553 167.134 17.4553H164.137C163.302 17.4553 162.628 17.7701 162.118 18.3995C161.606 19.0047 161.35 19.8036 161.35 20.7961V24.3185C161.35 25.311 161.606 26.1221 162.118 26.7515C162.628 27.3567 163.29 27.6593 164.103 27.6593H167.099ZM185.388 31.6174C183.344 31.6174 181.845 31.1333 180.893 30.1649C179.94 29.1965 179.465 27.6956 179.465 25.6621V17.7095H176.399V13.4972H179.604V8.01393H184.202V13.4972H188.732V17.7095H184.202V25.4442C184.202 26.1221 184.32 26.6183 184.551 26.933C184.807 27.2478 185.201 27.4051 185.736 27.4051H188.732V31.6174H185.388ZM197.179 31.9079C195.367 31.9079 193.904 31.4358 192.789 30.4917C191.674 29.5476 191.116 28.3009 191.116 26.7515V25.4079C191.116 23.8827 191.697 22.6601 192.858 21.7403C194.021 20.7961 195.553 20.3241 197.457 20.3241H199.583C200.187 20.3241 200.838 20.4087 201.535 20.5782C202.231 20.7478 202.87 20.9777 203.451 21.2682V19.3799C203.451 18.7747 203.254 18.2905 202.858 17.9274C202.486 17.54 201.986 17.3464 201.36 17.3464H198.364C197.713 17.3464 197.19 17.5037 196.796 17.8185C196.401 18.1332 196.204 18.5568 196.204 19.0894H191.605C191.605 17.3221 192.22 15.9059 193.45 14.8408C194.705 13.7514 196.342 13.2067 198.364 13.2067H201.36C203.403 13.2067 205.053 13.7757 206.308 14.9134C207.561 16.0271 208.188 17.5159 208.188 19.3799V31.6174H203.799V29.4386C203.241 30.1891 202.557 30.7943 201.743 31.2543C200.93 31.69 200.129 31.9079 199.339 31.9079H197.179ZM199.688 28.1314C200.547 28.1314 201.313 27.9014 201.986 27.4414C202.66 26.9814 203.149 26.3641 203.451 25.5894V24.9721C203.079 24.6816 202.557 24.4517 201.883 24.2822C201.232 24.1127 200.536 24.028 199.793 24.028H197.597C197.039 24.028 196.586 24.1732 196.238 24.4637C195.889 24.7542 195.715 25.1416 195.715 25.6258V26.5699C195.715 27.0299 195.902 27.4051 196.273 27.6956C196.668 27.9861 197.179 28.1314 197.806 28.1314H199.688Z" fill="white"/>
</g>
<defs>
<clipPath id="clip0_99_1589">
<rect width="210" height="36" fill="white"/>
</clipPath>
</defs>
</svg>
