<svg width="40" height="40" viewBox="0 0 40 40" fill="none" xmlns="http://www.w3.org/2000/svg">
<path d="M36.9323 28.4868C36.1 28.4057 33.1767 27.2142 34.0091 23.7201C34.5346 23.8134 34.9057 23.9001 34.9057 23.9001L36.4443 22.1218L31.122 4.22564L30.3738 13.7153L26.317 0L25.7016 11.241C25.7016 11.241 18.8747 2.98844 8.25286 11.9995C9.33862 11.533 11.3119 11.3137 13.7911 12.5052C7.60945 13.6342 0.740491 17.6704 3.40111 30.3836C3.40111 30.3836 3.72749 27.0061 6.3881 25.796C6.3881 31.8606 11.6551 40.3332 21.7738 39.9899C9.08519 36.4511 8.886 20.7764 18.914 19.5485C20.2897 19.4394 20.9593 19.6027 21.5924 19.8191C20.2345 19.8191 18.0331 19.7529 16.404 22.4493C15.8971 22.3896 15.1125 22.2692 15.1125 22.2692L16.2347 22.9671C16.2347 22.9671 15.2818 25.8203 16.4161 28.0716C14.2315 28.457 13.5919 28.5653 13.5919 28.5653L18.2622 29.3721C18.2622 29.3721 19.1909 31.214 20.2261 32.2495C19.0917 32.9356 17.0521 34.1157 17.0521 34.1157L22.133 33.2369C22.133 33.2369 23.2309 36.5594 26.5368 38.9906C27.0203 38.7984 28.2631 38.2929 28.9627 37.7628C27.5992 36.9231 25.0872 35.1411 23.0616 30.6597C22.7605 30.8531 21.7467 31.4062 21.7467 31.4062C21.7467 31.4062 20.1569 30.0338 19.1404 27.6023C18.6213 27.6956 17.5833 27.9149 17.5833 27.9149C17.5833 27.9149 16.461 25.3146 17.4991 22.69L17.2634 22.6359C17.2634 22.6359 18.7476 19.9096 22.305 20.2166C22.5762 20.2166 22.0422 21.8148 19.78 21.7607C19.78 21.7607 19.6257 23.1686 22.2227 23.5026C22.2227 23.7201 21.2006 24.5775 19.8249 24.4357C20.8751 28.2013 26.6303 26.4762 28.4231 29.6279C30.1756 32.7068 28.251 33.1397 30.4954 36.6068C30.8209 35.5805 32.0339 33.6213 34.9572 34.0066C34.9572 33.6902 35.1282 31.3792 37.5 30.6385C37.3944 30.4284 36.7789 29.3183 36.9323 28.4868ZM31.2034 24.1017C30.9958 24.1017 30.0727 23.8488 30.0727 23.1808C30.0185 21.9977 30.7965 22.133 30.6881 20.1382C31.946 20.7913 31.7337 23.6995 32.3939 25.2894C31.5935 25.0291 31.2034 24.0989 31.2034 24.0989V24.1017Z" fill="white"/>
</svg>
