<svg width="24" height="24" viewBox="0 0 24 24" fill="none" xmlns="http://www.w3.org/2000/svg">
<path fill-rule="evenodd" clip-rule="evenodd" d="M11.9999 7.99999C12.5522 7.99999 12.9999 8.4477 12.9999 8.99999V13C12.9999 13.5523 12.5522 14 11.9999 14C11.4476 14 10.9999 13.5523 10.9999 13V8.99999C10.9999 8.4477 11.4476 7.99999 11.9999 7.99999Z" fill="white"/>
<path d="M12.9999 16C12.9999 16.5523 12.5522 17 11.9999 17C11.4476 17 10.9999 16.5523 10.9999 16C10.9999 15.4477 11.4476 15 11.9999 15C12.5522 15 12.9999 15.4477 12.9999 16Z" fill="white"/>
<path fill-rule="evenodd" clip-rule="evenodd" d="M7.00376 21H16.996C19.9781 21 21.9116 17.8543 20.565 15.1936L15.5688 5.32249C14.0884 2.39764 9.91138 2.39762 8.431 5.32249L3.43486 15.1936C2.08818 17.8543 4.02166 21 7.00376 21ZM10.2155 6.22567L5.21931 16.0968C4.54597 17.4271 5.51272 19 7.00376 19H16.996C18.4871 19 19.4538 17.4271 18.7805 16.0968L13.7844 6.22567C13.0442 4.76324 10.9556 4.76324 10.2155 6.22567Z" fill="#EECD00"/>
</svg>
