<svg width="20" height="20" viewBox="0 0 20 20" fill="none" xmlns="http://www.w3.org/2000/svg">
<path fill-rule="evenodd" clip-rule="evenodd" d="M17.8414 16.138L17.074 13.5799C16.473 11.5764 14.4033 10.3992 12.3741 10.9065C10.8154 11.2962 9.18469 11.2962 7.62596 10.9065C5.59672 10.3992 3.5271 11.5764 2.92606 13.5799L2.15864 16.138C1.58119 18.0628 3.02253 20 5.03212 20H14.9679C16.9775 20 18.4189 18.0628 17.8414 16.138ZM4.84171 14.1546L4.07429 16.7127C3.88181 17.3543 4.36226 18 5.03212 18H14.9679C15.6378 18 16.1182 17.3543 15.9258 16.7127L15.1583 14.1546C14.8643 13.1745 13.8519 12.5986 12.8592 12.8468C10.982 13.3161 9.01809 13.3161 7.14089 12.8468C6.14819 12.5986 5.13574 13.1745 4.84171 14.1546Z" fill="white"/>
<path fill-rule="evenodd" clip-rule="evenodd" d="M15 5C15 7.76142 12.7614 10 10 10C7.2386 10 5.00003 7.76142 5.00003 5C5.00003 2.23858 7.2386 0 10 0C12.7614 0 15 2.23858 15 5ZM10 8C11.6569 8 13 6.65685 13 5C13 3.34315 11.6569 2 10 2C8.34317 2 7.00003 3.34315 7.00003 5C7.00003 6.65685 8.34317 8 10 8Z" fill="white"/>
</svg>
