<svg width="190" height="32" viewBox="0 0 190 32" fill="none" xmlns="http://www.w3.org/2000/svg">
<g clip-path="url(#clip0_2208_2428)">
<path d="M0 7.45764V15.0544L0.461763 16L0.923526 16.9457V19.562V22.1783L0.461763 23.1239L0 24.0696V28.1044V32.1392H7.88075H15.7615L16.5804 31.7231L17.3931 31.307L18.2119 31.7231L19.0246 32.1392H25.2738H31.523V25.7403V19.3413L31.1167 18.5029L30.7103 17.6707L31.1167 16.8322L31.523 16V7.93047V-0.139097H29.5528H27.5826L26.7822 0.270685L25.9819 0.680468L25.1815 0.270685L24.3811 -0.139097H20.5331H16.685L15.7615 0.333729L14.838 0.806555H12.2829H9.72781L8.80428 0.333729L7.88075 -0.139097H3.94038H0V7.45764ZM16.5804 12.602C21.6351 16.4918 25.8156 19.7196 25.871 19.7763C25.9695 19.8709 25.9449 20.0789 25.5139 23.1555C25.2677 24.9522 25.0583 26.4337 25.0583 26.4463C25.0583 26.4589 24.221 26.4589 23.199 26.4526L21.3396 26.4337L20.1575 25.0153L18.9692 23.5968L18.7291 22.5692C18.5937 22.0018 18.4767 21.5353 18.4644 21.5226C18.452 21.51 18.0211 21.3209 17.5039 21.1003L16.5681 20.6968L11.0454 14.052L5.52884 7.40721L6.44005 6.47416C6.94491 5.95721 7.36358 5.53482 7.37589 5.53482C7.38205 5.53482 11.5256 8.71851 16.5804 12.602ZM24.615 6.94069L25.9819 8.34025L25.9695 11.1646L25.9511 13.9826L21.826 9.75873L17.7009 5.53482H20.4715H23.2421L24.615 6.94069ZM11.1008 26.4526L8.34252 26.4653L6.94491 25.0342L5.54115 23.5968V20.7598V17.9292L9.69702 22.1783L13.8529 26.4337L11.1008 26.4526Z" fill="#BBDD00"/>
<path d="M49.1443 28.3626C47.484 28.3626 46.0131 28.0075 44.7311 27.2974C43.4702 26.5657 42.4825 25.5544 41.7679 24.2633C41.0744 22.9506 40.7277 21.4335 40.7277 19.712V13.9019C40.7277 12.1805 41.0744 10.6741 41.7679 9.38297C42.4825 8.07032 43.4702 7.05894 44.7311 6.34882C46.0131 5.61717 47.484 5.25136 49.1443 5.25136H52.4857C54.146 5.25136 55.6065 5.61717 56.8674 6.34882C58.1494 7.05894 59.1371 8.07032 59.8306 9.38297C60.5452 10.6741 60.9024 12.1805 60.9024 13.9019V19.712C60.9024 21.4335 60.5452 22.9506 59.8306 24.2633C59.1371 25.5544 58.1494 26.5657 56.8674 27.2974C55.6065 28.0075 54.146 28.3626 52.4857 28.3626H49.1443ZM52.4857 24.4246C53.7047 24.4246 54.6819 23.9727 55.4174 23.069C56.1739 22.1652 56.5522 20.9816 56.5522 19.5183V14.0956C56.5522 12.6324 56.1739 11.4488 55.4174 10.545C54.6819 9.6412 53.7047 9.18931 52.4857 9.18931H49.1443C47.9254 9.18931 46.9377 9.6412 46.1811 10.545C45.4456 11.4488 45.0778 12.6324 45.0778 14.0956V19.5183C45.0778 20.9816 45.4456 22.1652 46.1811 23.069C46.9377 23.9727 47.9254 24.4246 49.1443 24.4246H52.4857ZM64.0431 11.9975H68.015V13.7405C68.4563 13.138 69.0133 12.6538 69.6857 12.288C70.3792 11.9222 71.0517 11.7393 71.7032 11.7393H73.6891C74.9501 11.7393 76.0638 12.0082 77.0306 12.5462C77.9973 13.0627 78.7433 13.7944 79.2687 14.7412C79.7941 15.688 80.0568 16.7747 80.0568 18.0013V21.6164C80.0568 22.9506 79.7941 24.1341 79.2687 25.167C78.7433 26.1784 78.0078 26.9639 77.0621 27.5234C76.1164 28.0828 75.0236 28.3626 73.7837 28.3626H71.7347C71.1462 28.3626 70.5368 28.2228 69.9064 27.943C69.297 27.6632 68.7716 27.2867 68.3302 26.8132V34.56H64.0431V11.9975ZM73.2163 24.586C73.9939 24.586 74.6138 24.2848 75.0761 23.6822C75.5385 23.0797 75.7697 22.2836 75.7697 21.2937V18.3241C75.7697 17.4848 75.5279 16.807 75.0446 16.2905C74.5822 15.7741 73.9624 15.5158 73.1848 15.5158H71.2619C70.6525 15.5158 70.0745 15.7741 69.5281 16.2905C68.9817 16.7854 68.5824 17.431 68.3302 18.2272V21.4228C68.4353 22.3696 68.7505 23.1335 69.2759 23.7145C69.8223 24.2955 70.4843 24.586 71.2619 24.586H73.2163ZM89.1832 28.3626C87.8592 28.3626 86.6824 28.1151 85.6526 27.6202C84.6439 27.1037 83.8558 26.3936 83.2884 25.4898C82.721 24.5645 82.4373 23.5101 82.4373 22.3266V18.1627C82.4373 16.8931 82.721 15.7741 83.2884 14.8057C83.8558 13.8374 84.6439 13.0843 85.6526 12.5462C86.6824 12.0082 87.8592 11.7393 89.1832 11.7393H91.705C93.7225 11.7393 95.3406 12.3203 96.5596 13.4823C97.7785 14.6443 98.3879 16.1937 98.3879 18.1304V21.5519H86.7244V22.3266C86.7244 23.0367 86.945 23.607 87.3864 24.0373C87.8277 24.4676 88.4266 24.6829 89.1832 24.6829H91.642C92.3775 24.6829 92.9659 24.5215 93.4073 24.1987C93.8696 23.8544 94.1008 23.4133 94.1008 22.8753H98.3249C98.3249 23.9512 98.0411 24.9088 97.4737 25.7481C96.9063 26.5873 96.1078 27.2329 95.078 27.6847C94.0692 28.1366 92.9029 28.3626 91.5789 28.3626H89.1832ZM94.1638 18.3886V18.1304C94.1638 17.2911 93.9432 16.624 93.5018 16.1291C93.0605 15.6127 92.472 15.3545 91.7365 15.3545H89.1832C88.4266 15.3545 87.8172 15.6234 87.3548 16.1614C86.8925 16.6994 86.6613 17.4095 86.6613 18.2918V18.3886H94.1638ZM101.292 11.9975H105.264V13.9342C105.726 13.2671 106.325 12.7399 107.061 12.3526C107.796 11.9437 108.532 11.7393 109.267 11.7393H111.159C112.84 11.7393 114.185 12.2773 115.194 13.3532C116.223 14.4291 116.738 15.8493 116.738 17.6139V28.1044H112.451V17.7753C112.451 17.1082 112.272 16.5703 111.915 16.1614C111.579 15.7525 111.138 15.5481 110.591 15.5481H108.7C107.964 15.5481 107.302 15.8279 106.714 16.3874C106.146 16.9254 105.768 17.6355 105.579 18.5177V28.1044H101.292V11.9975ZM123.377 28.1044C122.474 28.1044 121.738 27.8246 121.171 27.2651C120.603 26.7057 120.32 25.974 120.32 25.0702V5.50958H130.849C132.53 5.50958 134.001 5.83237 135.262 6.47793C136.544 7.1235 137.531 8.03804 138.225 9.22158C138.939 10.4052 139.296 11.7716 139.296 13.3209V19.6475C139.296 22.4234 138.593 24.5322 137.184 25.974C135.777 27.3942 133.707 28.1044 130.974 28.1044H123.377ZM130.849 24.1664C132.193 24.1664 133.213 23.7684 133.906 22.9721C134.599 22.1759 134.947 21.0031 134.947 19.4538V13.5146C134.947 12.288 134.558 11.309 133.779 10.5773C133.002 9.82415 131.983 9.44753 130.722 9.44753H124.67V24.1664H130.849ZM148.412 28.3626C147.087 28.3626 145.911 28.1044 144.88 27.5879C143.872 27.0499 143.084 26.2968 142.516 25.3284C141.97 24.3601 141.697 23.2411 141.697 21.9715V18.1949C141.697 16.9254 141.98 15.8063 142.548 14.838C143.116 13.8481 143.904 13.0843 144.912 12.5462C145.942 12.0082 147.119 11.7393 148.442 11.7393H151.28C152.603 11.7393 153.771 12.0082 154.779 12.5462C155.809 13.0843 156.608 13.8481 157.174 14.838C157.742 15.8063 158.026 16.9254 158.026 18.1949V21.9715C158.026 23.2411 157.742 24.3601 157.174 25.3284C156.608 26.2968 155.809 27.0499 154.779 27.5879C153.771 28.1044 152.593 28.3626 151.249 28.3626H148.412ZM151.185 24.586C151.963 24.586 152.582 24.3171 153.045 23.7791C153.507 23.2196 153.739 22.4987 153.739 21.6164V18.4854C153.739 17.6032 153.507 16.8931 153.045 16.3551C152.582 15.7956 151.973 15.5158 151.217 15.5158H148.505C147.749 15.5158 147.14 15.7956 146.678 16.3551C146.215 16.8931 145.983 17.6032 145.983 18.4854V21.6164C145.983 22.4987 146.215 23.2196 146.678 23.7791C147.14 24.3171 147.738 24.586 148.474 24.586H151.185ZM167.732 28.1044C165.882 28.1044 164.527 27.674 163.665 26.8132C162.803 25.9524 162.373 24.6183 162.373 22.8107V15.7418H159.599V11.9975H162.499V7.1235H166.659V11.9975H170.757V15.7418H166.659V22.6171C166.659 23.2196 166.765 23.6607 166.975 23.9405C167.206 24.2203 167.563 24.3601 168.047 24.3601H170.757V28.1044H167.732ZM178.4 28.3626C176.76 28.3626 175.437 27.943 174.428 27.1037C173.42 26.2645 172.915 25.1563 172.915 23.7791V22.5848C172.915 21.2291 173.44 20.1424 174.491 19.3247C175.542 18.4854 176.929 18.0658 178.652 18.0658H180.575C181.122 18.0658 181.71 18.1411 182.341 18.2918C182.971 18.4424 183.549 18.6468 184.075 18.9051V17.2266C184.075 16.6886 183.896 16.2582 183.538 15.9355C183.202 15.5911 182.75 15.419 182.183 15.419H179.472C178.883 15.419 178.41 15.5588 178.053 15.8386C177.696 16.1184 177.518 16.4949 177.518 16.9684H173.357C173.357 15.3974 173.913 14.1386 175.026 13.1918C176.162 12.2235 177.643 11.7393 179.472 11.7393H182.183C184.031 11.7393 185.524 12.245 186.659 13.2564C187.793 14.2463 188.361 15.5697 188.361 17.2266V28.1044H184.39V26.1677C183.885 26.8348 183.266 27.3727 182.529 27.7816C181.794 28.1689 181.069 28.3626 180.355 28.3626H178.4ZM180.67 25.0057C181.447 25.0057 182.14 24.8013 182.75 24.3924C183.359 23.9835 183.801 23.4347 184.075 22.7462V22.1974C183.738 21.9392 183.266 21.7348 182.656 21.5842C182.067 21.4335 181.437 21.3582 180.765 21.3582H178.778C178.274 21.3582 177.864 21.4873 177.548 21.7455C177.233 22.0038 177.075 22.3481 177.075 22.7785V23.6177C177.075 24.0266 177.244 24.3601 177.58 24.6183C177.937 24.8765 178.4 25.0057 178.967 25.0057H180.67Z" fill="white"/>
</g>
<defs>
<clipPath id="clip0_2208_2428">
<rect width="190" height="32" fill="white"/>
</clipPath>
</defs>
</svg>
