<svg width="20" height="20" viewBox="0 0 20 20" fill="none" xmlns="http://www.w3.org/2000/svg">
<path fill-rule="evenodd" clip-rule="evenodd" d="M11.5 14C14.5376 14 17 11.5376 17 8.5C17 5.46243 14.5376 3 11.5 3C8.46243 3 6 5.46243 6 8.5C6 11.5376 8.46243 14 11.5 14ZM11.5 16C15.6421 16 19 12.6421 19 8.5C19 4.35786 15.6421 1 11.5 1C7.35786 1 4 4.35786 4 8.5C4 10.2105 4.57264 11.7873 5.53666 13.0491C5.94304 13.581 6.41897 14.057 6.95088 14.4633C8.21268 15.4274 9.78946 16 11.5 16Z" fill="white"/>
<path d="M2.70711 18.7071L6.95088 14.4633C6.41897 14.057 5.94304 13.581 5.53666 13.0491L1.29289 17.2929C0.902369 17.6834 0.902369 18.3166 1.29289 18.7071C1.68342 19.0976 2.31658 19.0976 2.70711 18.7071Z" fill="white"/>
</svg>
